<mxfile host="app.diagrams.net" agent="Mozilla/5.0 (Windows NT 10.0; Win64; x64) AppleWebKit/537.36 (KHTML, like Gecko) Chrome/134.0.0.0 Safari/537.36" version="26.1.3" pages="4">
  <diagram name="cliente" id="Hj4nUUpSdkVmn6HQ-yUN">
    <mxGraphModel dx="848" dy="430" grid="1" gridSize="10" guides="1" tooltips="1" connect="1" arrows="1" fold="1" page="1" pageScale="1" pageWidth="827" pageHeight="1169" math="0" shadow="0">
      <root>
        <mxCell id="0" />
        <mxCell id="1" parent="0" />
        <mxCell id="d-w8DjWcGnu-2029JwEe-8" style="edgeStyle=orthogonalEdgeStyle;rounded=0;orthogonalLoop=1;jettySize=auto;html=1;" edge="1" parent="1" source="d-w8DjWcGnu-2029JwEe-1" target="d-w8DjWcGnu-2029JwEe-3">
          <mxGeometry relative="1" as="geometry" />
        </mxCell>
        <mxCell id="d-w8DjWcGnu-2029JwEe-1" value="Cliente" style="rounded=0;whiteSpace=wrap;html=1;" vertex="1" parent="1">
          <mxGeometry x="340" y="270" width="120" height="60" as="geometry" />
        </mxCell>
        <mxCell id="d-w8DjWcGnu-2029JwEe-9" style="edgeStyle=orthogonalEdgeStyle;rounded=0;orthogonalLoop=1;jettySize=auto;html=1;" edge="1" parent="1" source="d-w8DjWcGnu-2029JwEe-3" target="d-w8DjWcGnu-2029JwEe-4">
          <mxGeometry relative="1" as="geometry" />
        </mxCell>
        <mxCell id="d-w8DjWcGnu-2029JwEe-3" value="El usuario ingresa un signo (o cadena vacia) por consola" style="ellipse;whiteSpace=wrap;html=1;" vertex="1" parent="1">
          <mxGeometry x="305" y="370" width="190" height="80" as="geometry" />
        </mxCell>
        <mxCell id="d-w8DjWcGnu-2029JwEe-13" style="edgeStyle=orthogonalEdgeStyle;rounded=0;orthogonalLoop=1;jettySize=auto;html=1;" edge="1" parent="1" source="d-w8DjWcGnu-2029JwEe-4" target="d-w8DjWcGnu-2029JwEe-12">
          <mxGeometry relative="1" as="geometry" />
        </mxCell>
        <mxCell id="d-w8DjWcGnu-2029JwEe-4" value="El usuario ingresa una fecha (o cadena vacia) por consola." style="ellipse;whiteSpace=wrap;html=1;" vertex="1" parent="1">
          <mxGeometry x="305" y="490" width="190" height="80" as="geometry" />
        </mxCell>
        <mxCell id="d-w8DjWcGnu-2029JwEe-11" style="edgeStyle=orthogonalEdgeStyle;rounded=0;orthogonalLoop=1;jettySize=auto;html=1;" edge="1" parent="1" source="d-w8DjWcGnu-2029JwEe-6" target="d-w8DjWcGnu-2029JwEe-3">
          <mxGeometry relative="1" as="geometry" />
        </mxCell>
        <mxCell id="d-w8DjWcGnu-2029JwEe-6" value="&quot;sagitario&quot;" style="shape=process;whiteSpace=wrap;html=1;backgroundOutline=1;" vertex="1" parent="1">
          <mxGeometry x="120" y="380" width="120" height="60" as="geometry" />
        </mxCell>
        <mxCell id="d-w8DjWcGnu-2029JwEe-10" style="edgeStyle=orthogonalEdgeStyle;rounded=0;orthogonalLoop=1;jettySize=auto;html=1;" edge="1" parent="1" source="d-w8DjWcGnu-2029JwEe-7" target="d-w8DjWcGnu-2029JwEe-4">
          <mxGeometry relative="1" as="geometry" />
        </mxCell>
        <mxCell id="d-w8DjWcGnu-2029JwEe-7" value="&quot;03-03-2021&quot;" style="shape=process;whiteSpace=wrap;html=1;backgroundOutline=1;" vertex="1" parent="1">
          <mxGeometry x="120" y="500" width="120" height="60" as="geometry" />
        </mxCell>
        <mxCell id="d-w8DjWcGnu-2029JwEe-14" style="edgeStyle=orthogonalEdgeStyle;rounded=0;orthogonalLoop=1;jettySize=auto;html=1;" edge="1" parent="1" source="d-w8DjWcGnu-2029JwEe-12">
          <mxGeometry relative="1" as="geometry">
            <mxPoint x="650" y="660" as="targetPoint" />
          </mxGeometry>
        </mxCell>
        <mxCell id="d-w8DjWcGnu-2029JwEe-18" style="edgeStyle=orthogonalEdgeStyle;rounded=0;orthogonalLoop=1;jettySize=auto;html=1;" edge="1" parent="1" source="d-w8DjWcGnu-2029JwEe-12" target="d-w8DjWcGnu-2029JwEe-17">
          <mxGeometry relative="1" as="geometry" />
        </mxCell>
        <mxCell id="d-w8DjWcGnu-2029JwEe-12" value="Se envia la consulta al servidor&lt;div&gt;central&lt;/div&gt;" style="ellipse;whiteSpace=wrap;html=1;" vertex="1" parent="1">
          <mxGeometry x="305" y="620" width="190" height="80" as="geometry" />
        </mxCell>
        <mxCell id="d-w8DjWcGnu-2029JwEe-15" value="(&quot;sagitario&quot;,&quot;03-03-2021&quot;)" style="text;html=1;align=center;verticalAlign=middle;resizable=0;points=[];autosize=1;strokeColor=none;fillColor=none;" vertex="1" parent="1">
          <mxGeometry x="490" y="620" width="160" height="30" as="geometry" />
        </mxCell>
        <mxCell id="d-w8DjWcGnu-2029JwEe-22" style="edgeStyle=orthogonalEdgeStyle;rounded=0;orthogonalLoop=1;jettySize=auto;html=1;" edge="1" parent="1" source="d-w8DjWcGnu-2029JwEe-17" target="d-w8DjWcGnu-2029JwEe-21">
          <mxGeometry relative="1" as="geometry" />
        </mxCell>
        <mxCell id="d-w8DjWcGnu-2029JwEe-17" value="Espera la respuesta" style="ellipse;whiteSpace=wrap;html=1;" vertex="1" parent="1">
          <mxGeometry x="305" y="740" width="190" height="80" as="geometry" />
        </mxCell>
        <mxCell id="d-w8DjWcGnu-2029JwEe-19" value="" style="endArrow=classic;html=1;rounded=0;entryX=1;entryY=0.5;entryDx=0;entryDy=0;" edge="1" parent="1" target="d-w8DjWcGnu-2029JwEe-17">
          <mxGeometry width="50" height="50" relative="1" as="geometry">
            <mxPoint x="640" y="780" as="sourcePoint" />
            <mxPoint x="530" y="700" as="targetPoint" />
          </mxGeometry>
        </mxCell>
        <mxCell id="d-w8DjWcGnu-2029JwEe-20" value="(&quot;tendrás un gran año&quot;,&lt;div&gt;&quot;frío y ventoso&quot;)&lt;/div&gt;" style="text;html=1;align=center;verticalAlign=middle;resizable=0;points=[];autosize=1;strokeColor=none;fillColor=none;" vertex="1" parent="1">
          <mxGeometry x="495" y="735" width="150" height="40" as="geometry" />
        </mxCell>
        <mxCell id="d-w8DjWcGnu-2029JwEe-24" style="edgeStyle=orthogonalEdgeStyle;rounded=0;orthogonalLoop=1;jettySize=auto;html=1;" edge="1" parent="1" source="d-w8DjWcGnu-2029JwEe-21" target="d-w8DjWcGnu-2029JwEe-23">
          <mxGeometry relative="1" as="geometry" />
        </mxCell>
        <mxCell id="d-w8DjWcGnu-2029JwEe-21" value="Mostrar resultado por consola" style="ellipse;whiteSpace=wrap;html=1;" vertex="1" parent="1">
          <mxGeometry x="305" y="850" width="190" height="80" as="geometry" />
        </mxCell>
        <mxCell id="d-w8DjWcGnu-2029JwEe-23" value="" style="ellipse;whiteSpace=wrap;html=1;aspect=fixed;fillColor=#000000;" vertex="1" parent="1">
          <mxGeometry x="390" y="960" width="20" height="20" as="geometry" />
        </mxCell>
      </root>
    </mxGraphModel>
  </diagram>
  <diagram id="-kR7ajJkNf6JsRSngCKi" name="servidorcentral">
    <mxGraphModel dx="899" dy="456" grid="1" gridSize="10" guides="1" tooltips="1" connect="1" arrows="1" fold="1" page="1" pageScale="1" pageWidth="827" pageHeight="1169" math="0" shadow="0">
      <root>
        <mxCell id="0" />
        <mxCell id="1" parent="0" />
        <mxCell id="AhD7saFoBisadRbivL8H-4" style="edgeStyle=orthogonalEdgeStyle;rounded=0;orthogonalLoop=1;jettySize=auto;html=1;entryX=0.5;entryY=0;entryDx=0;entryDy=0;" edge="1" parent="1" source="AhD7saFoBisadRbivL8H-1" target="AhD7saFoBisadRbivL8H-2">
          <mxGeometry relative="1" as="geometry" />
        </mxCell>
        <mxCell id="AhD7saFoBisadRbivL8H-1" value="Servidor central" style="rounded=0;whiteSpace=wrap;html=1;" vertex="1" parent="1">
          <mxGeometry x="315" y="110" width="120" height="60" as="geometry" />
        </mxCell>
        <mxCell id="AhD7saFoBisadRbivL8H-5" style="edgeStyle=orthogonalEdgeStyle;rounded=0;orthogonalLoop=1;jettySize=auto;html=1;" edge="1" parent="1" source="AhD7saFoBisadRbivL8H-2" target="AhD7saFoBisadRbivL8H-3">
          <mxGeometry relative="1" as="geometry" />
        </mxCell>
        <mxCell id="AhD7saFoBisadRbivL8H-2" value="Esperando consulta" style="ellipse;whiteSpace=wrap;html=1;" vertex="1" parent="1">
          <mxGeometry x="280" y="210" width="190" height="80" as="geometry" />
        </mxCell>
        <mxCell id="AhD7saFoBisadRbivL8H-7" style="edgeStyle=orthogonalEdgeStyle;rounded=0;orthogonalLoop=1;jettySize=auto;html=1;" edge="1" parent="1" source="AhD7saFoBisadRbivL8H-3" target="AhD7saFoBisadRbivL8H-6">
          <mxGeometry relative="1" as="geometry" />
        </mxCell>
        <mxCell id="AhD7saFoBisadRbivL8H-3" value="Recibe consulta" style="ellipse;whiteSpace=wrap;html=1;" vertex="1" parent="1">
          <mxGeometry x="280" y="320" width="190" height="80" as="geometry" />
        </mxCell>
        <mxCell id="fPEGXTgDj4z2kuUPvkz_-4" style="edgeStyle=orthogonalEdgeStyle;rounded=0;orthogonalLoop=1;jettySize=auto;html=1;" edge="1" parent="1" source="AhD7saFoBisadRbivL8H-6" target="fPEGXTgDj4z2kuUPvkz_-3">
          <mxGeometry relative="1" as="geometry" />
        </mxCell>
        <mxCell id="AhD7saFoBisadRbivL8H-6" value="Crea gestor de clientes" style="ellipse;whiteSpace=wrap;html=1;" vertex="1" parent="1">
          <mxGeometry x="280" y="430" width="190" height="80" as="geometry" />
        </mxCell>
        <mxCell id="fPEGXTgDj4z2kuUPvkz_-1" style="edgeStyle=orthogonalEdgeStyle;rounded=0;orthogonalLoop=1;jettySize=auto;html=1;" edge="1" parent="1">
          <mxGeometry relative="1" as="geometry">
            <mxPoint x="280" y="360" as="targetPoint" />
            <mxPoint x="125" y="360" as="sourcePoint" />
          </mxGeometry>
        </mxCell>
        <mxCell id="fPEGXTgDj4z2kuUPvkz_-2" value="(&quot;sagitario&quot;,&quot;03-03-2021&quot;)" style="text;html=1;align=center;verticalAlign=middle;resizable=0;points=[];autosize=1;strokeColor=none;fillColor=none;" vertex="1" parent="1">
          <mxGeometry x="120" y="320" width="160" height="30" as="geometry" />
        </mxCell>
        <mxCell id="WSw6HHJbZ-B0F9CbyOGo-2" style="edgeStyle=orthogonalEdgeStyle;rounded=0;orthogonalLoop=1;jettySize=auto;html=1;" edge="1" parent="1" source="fPEGXTgDj4z2kuUPvkz_-3" target="WSw6HHJbZ-B0F9CbyOGo-1">
          <mxGeometry relative="1" as="geometry" />
        </mxCell>
        <mxCell id="fPEGXTgDj4z2kuUPvkz_-3" value="SC - Gestor de clientes" style="rounded=0;whiteSpace=wrap;html=1;" vertex="1" parent="1">
          <mxGeometry x="315" y="550" width="120" height="60" as="geometry" />
        </mxCell>
        <mxCell id="Io-klo5kRDiKX3hyKvjk-7" style="edgeStyle=orthogonalEdgeStyle;rounded=0;orthogonalLoop=1;jettySize=auto;html=1;" edge="1" parent="1" source="fPEGXTgDj4z2kuUPvkz_-5" target="fPEGXTgDj4z2kuUPvkz_-13">
          <mxGeometry relative="1" as="geometry" />
        </mxCell>
        <mxCell id="fPEGXTgDj4z2kuUPvkz_-5" value="Derivar subconsulta/s" style="ellipse;whiteSpace=wrap;html=1;" vertex="1" parent="1">
          <mxGeometry x="280" y="760" width="190" height="80" as="geometry" />
        </mxCell>
        <mxCell id="fPEGXTgDj4z2kuUPvkz_-8" value="" style="endArrow=classic;html=1;rounded=0;exitX=1;exitY=0.5;exitDx=0;exitDy=0;" edge="1" parent="1" source="fPEGXTgDj4z2kuUPvkz_-5">
          <mxGeometry width="50" height="50" relative="1" as="geometry">
            <mxPoint x="240" y="580" as="sourcePoint" />
            <mxPoint x="690" y="740" as="targetPoint" />
            <Array as="points">
              <mxPoint x="520" y="800" />
              <mxPoint x="520" y="740" />
            </Array>
          </mxGeometry>
        </mxCell>
        <mxCell id="fPEGXTgDj4z2kuUPvkz_-9" value="" style="endArrow=classic;html=1;rounded=0;exitX=1;exitY=0.5;exitDx=0;exitDy=0;" edge="1" parent="1" source="fPEGXTgDj4z2kuUPvkz_-5">
          <mxGeometry width="50" height="50" relative="1" as="geometry">
            <mxPoint x="470" y="580" as="sourcePoint" />
            <mxPoint x="690" y="850" as="targetPoint" />
            <Array as="points">
              <mxPoint x="520" y="800" />
              <mxPoint x="520" y="850" />
            </Array>
          </mxGeometry>
        </mxCell>
        <mxCell id="fPEGXTgDj4z2kuUPvkz_-10" value="&quot;sagitario&quot;" style="text;html=1;align=center;verticalAlign=middle;resizable=0;points=[];autosize=1;strokeColor=none;fillColor=none;" vertex="1" parent="1">
          <mxGeometry x="505" y="710" width="80" height="30" as="geometry" />
        </mxCell>
        <mxCell id="fPEGXTgDj4z2kuUPvkz_-11" value="&quot;03-03-2021&quot;" style="text;html=1;align=center;verticalAlign=middle;resizable=0;points=[];autosize=1;strokeColor=none;fillColor=none;" vertex="1" parent="1">
          <mxGeometry x="505" y="850" width="90" height="30" as="geometry" />
        </mxCell>
        <mxCell id="Io-klo5kRDiKX3hyKvjk-9" style="edgeStyle=orthogonalEdgeStyle;rounded=0;orthogonalLoop=1;jettySize=auto;html=1;" edge="1" parent="1" source="fPEGXTgDj4z2kuUPvkz_-13" target="Io-klo5kRDiKX3hyKvjk-8">
          <mxGeometry relative="1" as="geometry" />
        </mxCell>
        <mxCell id="fPEGXTgDj4z2kuUPvkz_-13" value="Espera la/s subrespuesta/s" style="ellipse;whiteSpace=wrap;html=1;" vertex="1" parent="1">
          <mxGeometry x="280" y="910" width="190" height="80" as="geometry" />
        </mxCell>
        <mxCell id="Io-klo5kRDiKX3hyKvjk-1" value="" style="endArrow=classic;html=1;rounded=0;entryX=1;entryY=0.5;entryDx=0;entryDy=0;" edge="1" parent="1">
          <mxGeometry width="50" height="50" relative="1" as="geometry">
            <mxPoint x="595" y="925.9999999999999" as="sourcePoint" />
            <mxPoint x="450" y="925.9999999999999" as="targetPoint" />
          </mxGeometry>
        </mxCell>
        <mxCell id="Io-klo5kRDiKX3hyKvjk-2" value="&quot;tendrás un gran año&quot;" style="text;html=1;align=center;verticalAlign=middle;resizable=0;points=[];autosize=1;strokeColor=none;fillColor=none;" vertex="1" parent="1">
          <mxGeometry x="460" y="899.9999999999999" width="140" height="30" as="geometry" />
        </mxCell>
        <mxCell id="Io-klo5kRDiKX3hyKvjk-4" value="&lt;div&gt;&quot;frío y ventoso&quot;&lt;/div&gt;" style="text;html=1;align=center;verticalAlign=middle;resizable=0;points=[];autosize=1;strokeColor=none;fillColor=none;" vertex="1" parent="1">
          <mxGeometry x="480" y="946.9999999999999" width="100" height="30" as="geometry" />
        </mxCell>
        <mxCell id="Io-klo5kRDiKX3hyKvjk-6" value="" style="endArrow=classic;html=1;rounded=0;entryX=1;entryY=0.5;entryDx=0;entryDy=0;" edge="1" parent="1">
          <mxGeometry width="50" height="50" relative="1" as="geometry">
            <mxPoint x="599" y="971.9999999999999" as="sourcePoint" />
            <mxPoint x="454" y="971.9999999999999" as="targetPoint" />
          </mxGeometry>
        </mxCell>
        <mxCell id="Io-klo5kRDiKX3hyKvjk-10" style="edgeStyle=orthogonalEdgeStyle;rounded=0;orthogonalLoop=1;jettySize=auto;html=1;" edge="1" parent="1" source="Io-klo5kRDiKX3hyKvjk-8">
          <mxGeometry relative="1" as="geometry">
            <mxPoint x="190" y="1050" as="targetPoint" />
          </mxGeometry>
        </mxCell>
        <mxCell id="IoyKhX7bAP9YBDwPHuhL-2" style="edgeStyle=orthogonalEdgeStyle;rounded=0;orthogonalLoop=1;jettySize=auto;html=1;" edge="1" parent="1" source="Io-klo5kRDiKX3hyKvjk-8" target="IoyKhX7bAP9YBDwPHuhL-1">
          <mxGeometry relative="1" as="geometry" />
        </mxCell>
        <mxCell id="Io-klo5kRDiKX3hyKvjk-8" value="Enviar respuesta general" style="ellipse;whiteSpace=wrap;html=1;" vertex="1" parent="1">
          <mxGeometry x="280" y="1010" width="190" height="80" as="geometry" />
        </mxCell>
        <mxCell id="FpA3kId-ODNNVex43907-1" value="(&quot;tendrás un gran año&quot;,&lt;div&gt;&quot;frío y ventoso&quot;)&lt;/div&gt;" style="text;html=1;align=center;verticalAlign=middle;resizable=0;points=[];autosize=1;strokeColor=none;fillColor=none;" vertex="1" parent="1">
          <mxGeometry x="160" y="1000" width="150" height="40" as="geometry" />
        </mxCell>
        <mxCell id="IoyKhX7bAP9YBDwPHuhL-1" value="" style="ellipse;whiteSpace=wrap;html=1;aspect=fixed;fillColor=#000000;" vertex="1" parent="1">
          <mxGeometry x="365" y="1120" width="20" height="20" as="geometry" />
        </mxCell>
        <mxCell id="WSw6HHJbZ-B0F9CbyOGo-3" style="edgeStyle=orthogonalEdgeStyle;rounded=0;orthogonalLoop=1;jettySize=auto;html=1;" edge="1" parent="1" source="WSw6HHJbZ-B0F9CbyOGo-1" target="fPEGXTgDj4z2kuUPvkz_-5">
          <mxGeometry relative="1" as="geometry" />
        </mxCell>
        <mxCell id="WSw6HHJbZ-B0F9CbyOGo-4" style="edgeStyle=orthogonalEdgeStyle;rounded=0;orthogonalLoop=1;jettySize=auto;html=1;" edge="1" parent="1" source="WSw6HHJbZ-B0F9CbyOGo-1" target="Io-klo5kRDiKX3hyKvjk-8">
          <mxGeometry relative="1" as="geometry">
            <Array as="points">
              <mxPoint x="620" y="690" />
              <mxPoint x="620" y="1051" />
            </Array>
          </mxGeometry>
        </mxCell>
        <mxCell id="WSw6HHJbZ-B0F9CbyOGo-1" value="Para cada subconsulta,&lt;div&gt;¿Está la subconsulta&lt;/div&gt;&lt;div&gt;en cache?&lt;/div&gt;" style="ellipse;whiteSpace=wrap;html=1;" vertex="1" parent="1">
          <mxGeometry x="280" y="650" width="190" height="80" as="geometry" />
        </mxCell>
        <mxCell id="WSw6HHJbZ-B0F9CbyOGo-6" value="Si" style="text;html=1;align=center;verticalAlign=middle;resizable=0;points=[];autosize=1;strokeColor=none;fillColor=none;" vertex="1" parent="1">
          <mxGeometry x="535" y="660" width="30" height="30" as="geometry" />
        </mxCell>
        <mxCell id="WSw6HHJbZ-B0F9CbyOGo-7" value="No" style="text;html=1;align=center;verticalAlign=middle;resizable=0;points=[];autosize=1;strokeColor=none;fillColor=none;" vertex="1" parent="1">
          <mxGeometry x="325" y="730" width="40" height="30" as="geometry" />
        </mxCell>
      </root>
    </mxGraphModel>
  </diagram>
  <diagram name="servidorhoroscopos" id="PUHt-p1DMgTO56QUrfb4">
    <mxGraphModel dx="848" dy="430" grid="1" gridSize="10" guides="1" tooltips="1" connect="1" arrows="1" fold="1" page="1" pageScale="1" pageWidth="827" pageHeight="1169" math="0" shadow="0">
      <root>
        <mxCell id="Z1aTHCQ1nbJc2fDAlqLi-0" />
        <mxCell id="Z1aTHCQ1nbJc2fDAlqLi-1" parent="Z1aTHCQ1nbJc2fDAlqLi-0" />
        <mxCell id="Z1aTHCQ1nbJc2fDAlqLi-2" style="edgeStyle=orthogonalEdgeStyle;rounded=0;orthogonalLoop=1;jettySize=auto;html=1;entryX=0.5;entryY=0;entryDx=0;entryDy=0;" edge="1" parent="Z1aTHCQ1nbJc2fDAlqLi-1" source="Z1aTHCQ1nbJc2fDAlqLi-3" target="Z1aTHCQ1nbJc2fDAlqLi-5">
          <mxGeometry relative="1" as="geometry" />
        </mxCell>
        <mxCell id="Z1aTHCQ1nbJc2fDAlqLi-3" value="Servidor de horoscopos" style="rounded=0;whiteSpace=wrap;html=1;" vertex="1" parent="Z1aTHCQ1nbJc2fDAlqLi-1">
          <mxGeometry x="315" y="230" width="120" height="60" as="geometry" />
        </mxCell>
        <mxCell id="Z1aTHCQ1nbJc2fDAlqLi-4" style="edgeStyle=orthogonalEdgeStyle;rounded=0;orthogonalLoop=1;jettySize=auto;html=1;" edge="1" parent="Z1aTHCQ1nbJc2fDAlqLi-1" source="Z1aTHCQ1nbJc2fDAlqLi-5" target="Z1aTHCQ1nbJc2fDAlqLi-7">
          <mxGeometry relative="1" as="geometry" />
        </mxCell>
        <mxCell id="Z1aTHCQ1nbJc2fDAlqLi-5" value="Esperando consulta" style="ellipse;whiteSpace=wrap;html=1;" vertex="1" parent="Z1aTHCQ1nbJc2fDAlqLi-1">
          <mxGeometry x="280" y="330" width="190" height="80" as="geometry" />
        </mxCell>
        <mxCell id="Z1aTHCQ1nbJc2fDAlqLi-6" style="edgeStyle=orthogonalEdgeStyle;rounded=0;orthogonalLoop=1;jettySize=auto;html=1;" edge="1" parent="Z1aTHCQ1nbJc2fDAlqLi-1" source="Z1aTHCQ1nbJc2fDAlqLi-7" target="Z1aTHCQ1nbJc2fDAlqLi-9">
          <mxGeometry relative="1" as="geometry" />
        </mxCell>
        <mxCell id="Z1aTHCQ1nbJc2fDAlqLi-7" value="Recibe consulta" style="ellipse;whiteSpace=wrap;html=1;" vertex="1" parent="Z1aTHCQ1nbJc2fDAlqLi-1">
          <mxGeometry x="280" y="440" width="190" height="80" as="geometry" />
        </mxCell>
        <mxCell id="Z1aTHCQ1nbJc2fDAlqLi-8" style="edgeStyle=orthogonalEdgeStyle;rounded=0;orthogonalLoop=1;jettySize=auto;html=1;" edge="1" parent="Z1aTHCQ1nbJc2fDAlqLi-1" source="Z1aTHCQ1nbJc2fDAlqLi-9" target="Z1aTHCQ1nbJc2fDAlqLi-13">
          <mxGeometry relative="1" as="geometry" />
        </mxCell>
        <mxCell id="Z1aTHCQ1nbJc2fDAlqLi-9" value="Crea gestor de clientes" style="ellipse;whiteSpace=wrap;html=1;" vertex="1" parent="Z1aTHCQ1nbJc2fDAlqLi-1">
          <mxGeometry x="280" y="550" width="190" height="80" as="geometry" />
        </mxCell>
        <mxCell id="Z1aTHCQ1nbJc2fDAlqLi-10" style="edgeStyle=orthogonalEdgeStyle;rounded=0;orthogonalLoop=1;jettySize=auto;html=1;" edge="1" parent="Z1aTHCQ1nbJc2fDAlqLi-1">
          <mxGeometry relative="1" as="geometry">
            <mxPoint x="280" y="480" as="targetPoint" />
            <mxPoint x="125" y="480" as="sourcePoint" />
          </mxGeometry>
        </mxCell>
        <mxCell id="Z1aTHCQ1nbJc2fDAlqLi-11" value="&quot;sagitario&quot;" style="text;html=1;align=center;verticalAlign=middle;resizable=0;points=[];autosize=1;strokeColor=none;fillColor=none;" vertex="1" parent="Z1aTHCQ1nbJc2fDAlqLi-1">
          <mxGeometry x="160" y="450" width="80" height="30" as="geometry" />
        </mxCell>
        <mxCell id="Z1aTHCQ1nbJc2fDAlqLi-12" style="edgeStyle=orthogonalEdgeStyle;rounded=0;orthogonalLoop=1;jettySize=auto;html=1;" edge="1" parent="Z1aTHCQ1nbJc2fDAlqLi-1" source="Z1aTHCQ1nbJc2fDAlqLi-13">
          <mxGeometry relative="1" as="geometry">
            <mxPoint x="375" y="760" as="targetPoint" />
          </mxGeometry>
        </mxCell>
        <mxCell id="Z1aTHCQ1nbJc2fDAlqLi-13" value="SH - Gestor de clientes" style="rounded=0;whiteSpace=wrap;html=1;" vertex="1" parent="Z1aTHCQ1nbJc2fDAlqLi-1">
          <mxGeometry x="315" y="670" width="120" height="60" as="geometry" />
        </mxCell>
        <mxCell id="Z1aTHCQ1nbJc2fDAlqLi-20" style="edgeStyle=orthogonalEdgeStyle;rounded=0;orthogonalLoop=1;jettySize=auto;html=1;" edge="1" parent="Z1aTHCQ1nbJc2fDAlqLi-1" source="dJICL1yxOIU52xJ9qHNZ-1" target="Z1aTHCQ1nbJc2fDAlqLi-28">
          <mxGeometry relative="1" as="geometry">
            <mxPoint x="375" y="990" as="sourcePoint" />
          </mxGeometry>
        </mxCell>
        <mxCell id="Z1aTHCQ1nbJc2fDAlqLi-26" style="edgeStyle=orthogonalEdgeStyle;rounded=0;orthogonalLoop=1;jettySize=auto;html=1;" edge="1" parent="Z1aTHCQ1nbJc2fDAlqLi-1" source="Z1aTHCQ1nbJc2fDAlqLi-28">
          <mxGeometry relative="1" as="geometry">
            <mxPoint x="160" y="920" as="targetPoint" />
          </mxGeometry>
        </mxCell>
        <mxCell id="Z1aTHCQ1nbJc2fDAlqLi-27" style="edgeStyle=orthogonalEdgeStyle;rounded=0;orthogonalLoop=1;jettySize=auto;html=1;" edge="1" parent="Z1aTHCQ1nbJc2fDAlqLi-1" source="Z1aTHCQ1nbJc2fDAlqLi-28" target="Z1aTHCQ1nbJc2fDAlqLi-30">
          <mxGeometry relative="1" as="geometry" />
        </mxCell>
        <mxCell id="Z1aTHCQ1nbJc2fDAlqLi-28" value="Enviar respuesta" style="ellipse;whiteSpace=wrap;html=1;" vertex="1" parent="Z1aTHCQ1nbJc2fDAlqLi-1">
          <mxGeometry x="280" y="880" width="190" height="80" as="geometry" />
        </mxCell>
        <mxCell id="Z1aTHCQ1nbJc2fDAlqLi-29" value="&quot;tendrás un gran año&quot;" style="text;html=1;align=center;verticalAlign=middle;resizable=0;points=[];autosize=1;strokeColor=none;fillColor=none;" vertex="1" parent="Z1aTHCQ1nbJc2fDAlqLi-1">
          <mxGeometry x="150" y="880" width="140" height="30" as="geometry" />
        </mxCell>
        <mxCell id="Z1aTHCQ1nbJc2fDAlqLi-30" value="" style="ellipse;whiteSpace=wrap;html=1;aspect=fixed;fillColor=#000000;" vertex="1" parent="Z1aTHCQ1nbJc2fDAlqLi-1">
          <mxGeometry x="365" y="990" width="20" height="20" as="geometry" />
        </mxCell>
        <mxCell id="dJICL1yxOIU52xJ9qHNZ-1" value="Calcular respuesta" style="ellipse;whiteSpace=wrap;html=1;" vertex="1" parent="Z1aTHCQ1nbJc2fDAlqLi-1">
          <mxGeometry x="280" y="760" width="190" height="80" as="geometry" />
        </mxCell>
      </root>
    </mxGraphModel>
  </diagram>
  <diagram name="servidorfechas" id="KmXZK7fmgUGh3khfJlTl">
    <mxGraphModel dx="707" dy="358" grid="1" gridSize="10" guides="1" tooltips="1" connect="1" arrows="1" fold="1" page="1" pageScale="1" pageWidth="827" pageHeight="1169" math="0" shadow="0">
      <root>
        <mxCell id="tsznbMWvHPoBaYOTpXug-0" />
        <mxCell id="tsznbMWvHPoBaYOTpXug-1" parent="tsznbMWvHPoBaYOTpXug-0" />
        <mxCell id="tsznbMWvHPoBaYOTpXug-2" style="edgeStyle=orthogonalEdgeStyle;rounded=0;orthogonalLoop=1;jettySize=auto;html=1;entryX=0.5;entryY=0;entryDx=0;entryDy=0;" edge="1" parent="tsznbMWvHPoBaYOTpXug-1" source="tsznbMWvHPoBaYOTpXug-3" target="tsznbMWvHPoBaYOTpXug-5">
          <mxGeometry relative="1" as="geometry" />
        </mxCell>
        <mxCell id="tsznbMWvHPoBaYOTpXug-3" value="Servidor de fechas" style="rounded=0;whiteSpace=wrap;html=1;" vertex="1" parent="tsznbMWvHPoBaYOTpXug-1">
          <mxGeometry x="315" y="230" width="120" height="60" as="geometry" />
        </mxCell>
        <mxCell id="tsznbMWvHPoBaYOTpXug-4" style="edgeStyle=orthogonalEdgeStyle;rounded=0;orthogonalLoop=1;jettySize=auto;html=1;" edge="1" parent="tsznbMWvHPoBaYOTpXug-1" source="tsznbMWvHPoBaYOTpXug-5" target="tsznbMWvHPoBaYOTpXug-7">
          <mxGeometry relative="1" as="geometry" />
        </mxCell>
        <mxCell id="tsznbMWvHPoBaYOTpXug-5" value="Esperando consulta" style="ellipse;whiteSpace=wrap;html=1;" vertex="1" parent="tsznbMWvHPoBaYOTpXug-1">
          <mxGeometry x="280" y="330" width="190" height="80" as="geometry" />
        </mxCell>
        <mxCell id="tsznbMWvHPoBaYOTpXug-6" style="edgeStyle=orthogonalEdgeStyle;rounded=0;orthogonalLoop=1;jettySize=auto;html=1;" edge="1" parent="tsznbMWvHPoBaYOTpXug-1" source="tsznbMWvHPoBaYOTpXug-7" target="tsznbMWvHPoBaYOTpXug-9">
          <mxGeometry relative="1" as="geometry" />
        </mxCell>
        <mxCell id="tsznbMWvHPoBaYOTpXug-7" value="Recibe consulta" style="ellipse;whiteSpace=wrap;html=1;" vertex="1" parent="tsznbMWvHPoBaYOTpXug-1">
          <mxGeometry x="280" y="440" width="190" height="80" as="geometry" />
        </mxCell>
        <mxCell id="tsznbMWvHPoBaYOTpXug-8" style="edgeStyle=orthogonalEdgeStyle;rounded=0;orthogonalLoop=1;jettySize=auto;html=1;" edge="1" parent="tsznbMWvHPoBaYOTpXug-1" source="tsznbMWvHPoBaYOTpXug-9" target="tsznbMWvHPoBaYOTpXug-13">
          <mxGeometry relative="1" as="geometry" />
        </mxCell>
        <mxCell id="tsznbMWvHPoBaYOTpXug-9" value="Crea gestor de clientes" style="ellipse;whiteSpace=wrap;html=1;" vertex="1" parent="tsznbMWvHPoBaYOTpXug-1">
          <mxGeometry x="280" y="550" width="190" height="80" as="geometry" />
        </mxCell>
        <mxCell id="tsznbMWvHPoBaYOTpXug-10" style="edgeStyle=orthogonalEdgeStyle;rounded=0;orthogonalLoop=1;jettySize=auto;html=1;" edge="1" parent="tsznbMWvHPoBaYOTpXug-1">
          <mxGeometry relative="1" as="geometry">
            <mxPoint x="280" y="480" as="targetPoint" />
            <mxPoint x="125" y="480" as="sourcePoint" />
          </mxGeometry>
        </mxCell>
        <mxCell id="tsznbMWvHPoBaYOTpXug-11" value="&quot;03-03-2021&quot;" style="text;html=1;align=center;verticalAlign=middle;resizable=0;points=[];autosize=1;strokeColor=none;fillColor=none;" vertex="1" parent="tsznbMWvHPoBaYOTpXug-1">
          <mxGeometry x="155" y="450" width="90" height="30" as="geometry" />
        </mxCell>
        <mxCell id="tsznbMWvHPoBaYOTpXug-12" style="edgeStyle=orthogonalEdgeStyle;rounded=0;orthogonalLoop=1;jettySize=auto;html=1;" edge="1" parent="tsznbMWvHPoBaYOTpXug-1" source="tsznbMWvHPoBaYOTpXug-13">
          <mxGeometry relative="1" as="geometry">
            <mxPoint x="375" y="760" as="targetPoint" />
          </mxGeometry>
        </mxCell>
        <mxCell id="tsznbMWvHPoBaYOTpXug-13" value="SF - Gestor de clientes" style="rounded=0;whiteSpace=wrap;html=1;" vertex="1" parent="tsznbMWvHPoBaYOTpXug-1">
          <mxGeometry x="315" y="670" width="120" height="60" as="geometry" />
        </mxCell>
        <mxCell id="tsznbMWvHPoBaYOTpXug-14" style="edgeStyle=orthogonalEdgeStyle;rounded=0;orthogonalLoop=1;jettySize=auto;html=1;" edge="1" parent="tsznbMWvHPoBaYOTpXug-1" source="tsznbMWvHPoBaYOTpXug-20" target="tsznbMWvHPoBaYOTpXug-17">
          <mxGeometry relative="1" as="geometry">
            <mxPoint x="375" y="990" as="sourcePoint" />
          </mxGeometry>
        </mxCell>
        <mxCell id="tsznbMWvHPoBaYOTpXug-15" style="edgeStyle=orthogonalEdgeStyle;rounded=0;orthogonalLoop=1;jettySize=auto;html=1;" edge="1" parent="tsznbMWvHPoBaYOTpXug-1" source="tsznbMWvHPoBaYOTpXug-17">
          <mxGeometry relative="1" as="geometry">
            <mxPoint x="160" y="920" as="targetPoint" />
          </mxGeometry>
        </mxCell>
        <mxCell id="tsznbMWvHPoBaYOTpXug-16" style="edgeStyle=orthogonalEdgeStyle;rounded=0;orthogonalLoop=1;jettySize=auto;html=1;" edge="1" parent="tsznbMWvHPoBaYOTpXug-1" source="tsznbMWvHPoBaYOTpXug-17" target="tsznbMWvHPoBaYOTpXug-19">
          <mxGeometry relative="1" as="geometry" />
        </mxCell>
        <mxCell id="tsznbMWvHPoBaYOTpXug-17" value="Enviar respuesta" style="ellipse;whiteSpace=wrap;html=1;" vertex="1" parent="tsznbMWvHPoBaYOTpXug-1">
          <mxGeometry x="280" y="880" width="190" height="80" as="geometry" />
        </mxCell>
        <mxCell id="tsznbMWvHPoBaYOTpXug-18" value="&quot;frío y ventoso&quot;" style="text;html=1;align=center;verticalAlign=middle;resizable=0;points=[];autosize=1;strokeColor=none;fillColor=none;" vertex="1" parent="tsznbMWvHPoBaYOTpXug-1">
          <mxGeometry x="180" y="890" width="100" height="30" as="geometry" />
        </mxCell>
        <mxCell id="tsznbMWvHPoBaYOTpXug-19" value="" style="ellipse;whiteSpace=wrap;html=1;aspect=fixed;fillColor=#000000;" vertex="1" parent="tsznbMWvHPoBaYOTpXug-1">
          <mxGeometry x="365" y="990" width="20" height="20" as="geometry" />
        </mxCell>
        <mxCell id="tsznbMWvHPoBaYOTpXug-20" value="Calcular respuesta" style="ellipse;whiteSpace=wrap;html=1;" vertex="1" parent="tsznbMWvHPoBaYOTpXug-1">
          <mxGeometry x="280" y="760" width="190" height="80" as="geometry" />
        </mxCell>
      </root>
    </mxGraphModel>
  </diagram>
</mxfile>
